<svg width="52" height="46" viewBox="0 0 52 46" fill="none" xmlns="http://www.w3.org/2000/svg">
<path d="M33.2311 45.0563C32.0923 37.9017 31.041 31.1422 29.9241 24.0973L28.1282 25.5678C24.1292 29.1022 19.5303 31.8896 14.5497 33.7977C13.7665 34.1419 12.9104 34.2859 12.0581 34.217C11.2057 34.148 10.3837 33.8682 9.66579 33.4027C6.57777 31.4275 3.38027 29.584 0.204651 27.6966C0.680439 26.9996 1.34673 26.455 2.12365 26.128C2.90056 25.8011 3.75511 25.7056 4.58482 25.8531C7.08704 26.1202 9.60239 26.2447 12.1187 26.2262C12.9088 26.2138 13.6749 25.9527 14.3088 25.48C23.0691 18.0181 31.8294 10.527 40.5898 3.00668C42.8661 0.998629 45.8146 -0.075069 48.8464 1.8666e-06C51.5621 1.8666e-06 52.7009 1.79962 51.5402 4.38932C50.8989 5.68765 50.014 6.85004 48.934 7.81298C46.3716 10.1613 43.6997 12.3779 41.0278 14.5945C40.6811 14.85 40.3953 15.1794 40.1908 15.5588C39.9863 15.9383 39.8682 16.3585 39.8451 16.7891C39.2757 24.2071 38.5749 31.625 38.0055 39.0429C38.0005 39.7942 37.8123 40.5329 37.4573 41.1946C37.1023 41.8564 36.5913 42.4211 35.9687 42.8397C35.0183 43.5304 34.1045 44.2702 33.2311 45.0563Z" fill="#47585B"/>
</svg>
