<svg width="85" height="71" viewBox="0 0 85 71" fill="none" xmlns="http://www.w3.org/2000/svg">
<path d="M80.1756 57.7451V54.377C80.1756 51.3083 77.7568 48.8007 74.7263 48.6431V21.1786H78.0784C79.2364 21.1786 80.1756 20.2397 80.1756 19.0814V10.0618C80.1756 9.07714 79.4905 8.22496 78.5289 8.01349L42.9506 0.187962C42.6534 0.122598 42.3462 0.122598 42.0494 0.187962L6.47105 8.01384C5.50947 8.22531 4.82437 9.07749 4.82437 10.0621V19.0814C4.82437 20.2397 5.76358 21.1786 6.92161 21.1786H10.2737V48.6434C7.24319 48.8007 4.82437 51.3083 4.82437 54.3773V57.7455C2.08571 58.2387 0 60.6341 0 63.5126V68.7637C0 69.9221 0.939217 70.861 2.09725 70.861H6.92161H78.0784H82.9027C84.0608 70.861 85 69.9221 85 68.7637V63.5126C85 60.6341 82.9139 58.2387 80.1756 57.7451ZM9.01886 54.377C9.01886 53.5199 9.71619 52.8226 10.5733 52.8226H74.4267C75.2838 52.8226 75.9811 53.5199 75.9811 54.377V57.6469H9.01886V54.377ZM20.4384 48.6281H14.4682V21.79H20.4384V48.6281ZM43.6692 21.1786V48.6281H41.3311V21.1786H43.6692ZM53.8342 48.6281H47.8637V21.79H53.8342V48.6281ZM70.5318 48.6281H64.5616V21.79H70.5318V48.6281ZM37.1363 21.79V48.6281H31.1658V21.79H37.1363ZM4.19449 63.5126C4.19449 62.5912 4.94426 61.8418 5.8653 61.8418H6.92126H9.01851H75.9808H78.078H79.134C80.0554 61.8418 80.8048 62.5915 80.8048 63.5126V66.6665H75.9804H9.01886H4.19449V63.5126ZM60.3671 48.6281H58.0287V21.1786H60.3671V48.6281ZM9.01886 11.748L42.5 4.3835L75.9811 11.748V16.9838H9.01886V11.748ZM26.9713 21.1786V48.6281H24.6329V21.1786H26.9713Z" fill="#FFBA08"/>
</svg>
